<svg xmlns="http://www.w3.org/2000/svg" viewBox="0 0 64 64" role="img" aria-label="LeafRead">
  <defs>
    <linearGradient id="bg" x1="12" y1="8" x2="52" y2="56" gradientUnits="userSpaceOnUse">
      <stop stop-color="#B85C3F"/>
      <stop offset="1" stop-color="#8B3E2A"/>
    </linearGradient>
  </defs>
  <rect width="64" height="64" rx="14" fill="#F3EFE6"/>
  <rect x="8" y="8" width="48" height="48" rx="12" fill="url(#bg)"/>
  <path d="M22 18.5h16c1.4 0 2.5 1.1 2.5 2.5v26.2c0 .9-1 1.5-1.8 1.1l-8.7-4.2-8.7 4.2c-.8.4-1.8-.2-1.8-1.1V21c0-1.4 1.1-2.5 2.5-2.5z" fill="#FFF9F2"/>
  <path d="M32 20.5v21.8" stroke="#B85C3F" stroke-width="1.8" stroke-linecap="round"/>
  <path d="M24.5 26.5c4.2-2.4 8.8-2.4 13 0M24.5 32c4.2-2.1 8.8-2.1 13 0M24.5 37.5c4.2-1.8 8.8-1.8 13 0" stroke="#C9876E" stroke-width="1.5" stroke-linecap="round"/>
  <circle cx="46.5" cy="17.5" r="5.5" fill="#3F6650"/>
  <path d="M46.5 13.8c1.8 1.4 2.8 2.6 2.8 3.9 0 1.5-1.2 2.6-2.8 2.6s-2.8-1.1-2.8-2.6c0-1.3 1-2.5 2.8-3.9z" fill="#F3EFE6"/>
</svg>
